<svg xmlns="http://www.w3.org/2000/svg" viewBox="0 0 800 600" role="img" aria-label="illustration">
<defs>
 <linearGradient id="bg" x1="0" y1="0" x2="1" y2="1"><stop stop-color="#16a34a"/><stop offset="1" stop-color="#0ea5e9"/></linearGradient>
 <linearGradient id="accent" x1="0" y1="1" x2="1" y2="0"><stop stop-color="#f59e0b"/><stop offset="1" stop-color="#fde047"/></linearGradient>
 </defs>
<rect width="800" height="600" rx="44" fill="#f8fbff"/>
<circle cx="94" cy="85" r="62" fill="#16a34a" opacity=".12"/><circle cx="700" cy="510" r="120" fill="#0ea5e9" opacity=".1"/>
<path d="M0 485 Q170 410 330 480 T800 440 V600 H0Z" fill="url(#bg)" opacity=".1"/>
<g><rect x="145" y="120" width="510" height="355" rx="36" fill="#fff"/><circle cx="295" cy="290" r="100" fill="#dcfce7"/><path d="M295 225v130M252 255q43-40 86 0-10 35-48 34-39 0-48 34 43 40 96 0" fill="none" stroke="#16a34a" stroke-width="17" stroke-linecap="round"/><path d="M470 380V300M535 380V240M600 380V185" stroke="url(#bg)" stroke-width="34" stroke-linecap="round"/></g>
</svg>